<?xml version="1.0" encoding="utf-8"?>
<svg version="1.1" xmlns="http://www.w3.org/2000/svg" xmlns:xlink="http://www.w3.org/1999/xlink" x="0px" y="0px"
	 viewBox="2 1 25 25" xml:space="preserve">
<g>
	
	<g>
		<path  d="M17.264,17.027c-0.657,0.379-1.222,0.053-1.222-0.706v-5.634c0-0.758,0.565-1.084,1.222-0.706l4.879,2.817
			c0.657,0.379,0.657,1.032,0,1.411L17.264,17.027z"/>
	</g>
	<g>
		<path fill-rule="evenodd" clip-rule="evenodd"  d="M5.005,13.566c0-5.239,4.247-9.486,9.486-9.486
			c5.239,0,9.486,4.247,9.486,9.486c0,5.239-4.247,9.485-9.486,9.485C9.252,23.052,5.005,18.806,5.005,13.566z M2.215,13.566
			c0-6.78,5.496-12.275,12.276-12.275c6.78,0,12.276,5.496,12.276,12.275c0,6.78-5.496,12.275-12.276,12.275
			C7.711,25.842,2.215,20.347,2.215,13.566z"/>
	</g>
</g>
</svg>
