<svg version="1.1" xmlns="http://www.w3.org/2000/svg" xmlns:xlink="http://www.w3.org/1999/xlink"
	 viewBox="0 0 512 512" width="512px" height="512px" stroke-width="2" xml:space="preserve">
	<path d="M438.9,0H132.6c-2.5,0-4.6,2.1-4.6,4.6v32c0,2.5,2.1,4.6,4.6,4.6H416v393.1c0,2.5,2.1,4.6,4.6,4.6h32
		c2.5,0,4.6-2.1,4.6-4.6v-416C457.1,8.2,449,0,438.9,0z M365.7,73.1H73.1c-10.1,0-18.3,8.2-18.3,18.3v303.3c0,4.9,1.9,9.5,5.4,12.9
		l99,99c1.3,1.3,2.7,2.3,4.2,3.1v1.1h2.4c2,0.7,4.1,1.1,6.3,1.1h193.5c10.1,0,18.3-8.2,18.3-18.3V91.4
		C384,81.3,375.8,73.1,365.7,73.1z M181.7,475.4h-0.1L96,389.8v-0.1h85.7V475.4z"/>
</svg>
