<?xml version="1.0" encoding="utf-8"?>
<svg version="1.1" xmlns="http://www.w3.org/2000/svg" xmlns:xlink="http://www.w3.org/1999/xlink" x="0px" y="0px"
	 viewBox="2 1 110 25" xml:space="preserve">
<g fill="white">
	<g>
		<g>
			<g>
				<path fill-rule="evenodd" clip-rule="evenodd"  d="M106.893,12.173c0.83-0.038,1.359,0.359,1.586,0.718
					c0.322,0.472,0.359,1.455,0.359,1.927c0,1.398-0.34,2.55-1.813,2.55c-1.795,0-1.852-1.719-1.852-2.55
					C105.173,13.419,105.513,12.23,106.893,12.173z M108.856,19.787c0,0.811,0,1.851-1.757,1.851c-0.453,0-0.736-0.094-0.926-0.188
					c-0.774-0.359-0.812-0.982-0.851-1.417h-3.004c0,0.528-0.019,1.53,0.756,2.305c0.529,0.548,1.814,1.228,3.778,1.228
					c0.889,0,2.362-0.15,3.363-0.755c1.437-0.832,1.474-2.097,1.512-3.174v-9.484h-2.721v0.926
					c-0.435-0.416-1.134-1.077-2.645-1.077c-3.27,0-4.194,2.853-4.194,4.836c0,1.701,0.51,3.231,1.832,4.082
					c0.643,0.435,1.436,0.642,2.248,0.642c1.342,0,2.041-0.453,2.607-0.831V19.787z M99.144,10.151H96.31v9.881h2.909v-5.555
					c0-1.247,0.416-1.455,1.814-1.7l0.963-0.151v-2.569c-1.511,0.151-2.21,0.586-2.853,1.134V10.151z M88.212,13.873
					c0.095-0.415,0.188-0.869,0.586-1.304c0.283-0.302,0.774-0.642,1.474-0.642c0.51,0,1.059,0.189,1.417,0.548
					c0.415,0.435,0.491,0.982,0.548,1.398H88.212z M92.935,16.405c-0.358,0.699-0.907,1.738-2.494,1.738
					c-1.568,0-2.268-1.228-2.248-2.456h7.047c-0.037-1.115-0.113-3.042-1.398-4.421c-1.265-1.36-2.966-1.417-3.552-1.417
					c-3.892,0-5.063,3.061-5.063,5.441c0,3.231,2.059,5.101,4.987,5.101c1.587,0,2.872-0.603,3.723-1.397
					c0.51-0.473,0.85-0.964,1.19-1.474L92.935,16.405z M79.574,12.002c1.645-0.094,2.136,1.417,2.136,2.985
					c0,0.435-0.058,1.719-0.587,2.418c-0.245,0.303-0.736,0.736-1.511,0.736c-0.661,0-1.341-0.32-1.719-0.926
					c-0.341-0.585-0.454-1.492-0.454-2.21C77.439,14.421,77.459,12.116,79.574,12.002z M74.681,6.675v13.357h2.797l-0.113-1.039
					c0.358,0.396,1.152,1.304,2.891,1.304c1.965,0,3.174-1.247,3.685-2.361c0.434-0.869,0.604-2.041,0.604-3.042
					c0-3.929-2.608-5.025-4.195-5.025c-1.681,0-2.418,0.756-2.834,1.19V6.675H74.681z M66.978,10.189H64.05v9.843h2.91v-5.328
					c0-1.227,0-2.456,1.529-2.456c0.567,0,1.077,0.227,1.305,0.756c0.112,0.265,0.132,0.586,0.132,1.474v5.555h2.891v-6.745
					c0-1.53-0.265-2.418-1.304-2.966c-0.511-0.284-1.172-0.397-1.757-0.397c-0.699,0-1.342,0.17-1.795,0.359
					c-0.51,0.245-0.699,0.472-0.982,0.774V10.189z M59.291,20.032h2.871v-9.881h-2.871V20.032z M59.291,8.923h2.871V6.675h-2.871
					V8.923z M51.118,13.873c0.094-0.415,0.188-0.869,0.585-1.304c0.283-0.302,0.775-0.642,1.474-0.642
					c0.51,0,1.058,0.189,1.417,0.548c0.416,0.435,0.491,0.982,0.548,1.398H51.118z M55.841,16.405
					c-0.359,0.699-0.907,1.738-2.494,1.738c-1.568,0-2.267-1.228-2.248-2.456h7.047c-0.038-1.115-0.113-3.042-1.398-4.421
					c-1.266-1.36-2.966-1.417-3.552-1.417c-3.892,0-5.063,3.061-5.063,5.441c0,3.231,2.06,5.101,4.988,5.101
					c1.587,0,2.872-0.603,3.722-1.397c0.51-0.473,0.85-0.964,1.19-1.474L55.841,16.405z M43.058,10.378h-1.436v1.776h1.436v4.761
					c0,0.944,0.019,1.644,0.416,2.229c0.623,0.907,1.719,0.964,2.721,0.964c0.529,0,0.907-0.057,1.53-0.151V17.69l-1.039,0.038
					c-0.775,0-0.775-0.511-0.756-1.115v-4.439h1.927v-1.776h-1.908v-3.08h-2.891V10.378z M32.102,18.369
					c0.624,0.586,2.041,1.908,4.78,1.908c2.324,0,4.667-1.134,4.667-3.457c0-2.343-2.305-2.872-4.289-3.231
					c-0.944-0.17-1.568-0.284-1.568-0.851c0-0.283,0.264-0.737,1.398-0.737c0.68,0,1.549,0.265,2.475,0.983l1.795-1.663
					c-0.68-0.472-2.078-1.473-4.402-1.473c-2.758,0-4.157,1.681-4.157,3.306c0,0.737,0.303,1.417,0.737,1.852
					c0.435,0.434,1.04,0.68,1.644,0.85c0.435,0.132,0.888,0.227,1.322,0.302c0.567,0.094,1.247,0.151,1.682,0.378
					c0.17,0.094,0.378,0.227,0.378,0.566c0,0.736-1.058,0.964-1.757,0.964c-1.096,0-2.078-0.586-2.872-1.36L32.102,18.369z"/>
				<path fill-rule="evenodd" clip-rule="evenodd"  d="M106.893,12.173c0.83-0.038,1.359,0.359,1.586,0.718
					c0.322,0.472,0.359,1.455,0.359,1.927c0,1.398-0.34,2.55-1.813,2.55c-1.795,0-1.852-1.719-1.852-2.55
					C105.173,13.419,105.513,12.23,106.893,12.173z M108.856,19.787c0,0.811,0,1.851-1.757,1.851c-0.453,0-0.736-0.094-0.926-0.188
					c-0.774-0.359-0.812-0.982-0.851-1.417h-3.004c0,0.528-0.019,1.53,0.756,2.305c0.529,0.548,1.814,1.228,3.778,1.228
					c0.889,0,2.362-0.15,3.363-0.755c1.437-0.832,1.474-2.097,1.512-3.174v-9.484h-2.721v0.926
					c-0.435-0.416-1.134-1.077-2.645-1.077c-3.27,0-4.194,2.853-4.194,4.836c0,1.701,0.51,3.231,1.832,4.082
					c0.643,0.435,1.436,0.642,2.248,0.642c1.342,0,2.041-0.453,2.607-0.831V19.787z M99.144,10.151H96.31v9.881h2.909v-5.555
					c0-1.247,0.416-1.455,1.814-1.7l0.963-0.151v-2.569c-1.511,0.151-2.21,0.586-2.853,1.134V10.151z M88.212,13.873
					c0.095-0.415,0.188-0.869,0.586-1.304c0.283-0.302,0.774-0.642,1.474-0.642c0.51,0,1.059,0.189,1.417,0.548
					c0.415,0.435,0.491,0.982,0.548,1.398H88.212z M92.935,16.405c-0.358,0.699-0.907,1.738-2.494,1.738
					c-1.568,0-2.268-1.228-2.248-2.456h7.047c-0.037-1.115-0.113-3.042-1.398-4.421c-1.265-1.36-2.966-1.417-3.552-1.417
					c-3.892,0-5.063,3.061-5.063,5.441c0,3.231,2.059,5.101,4.987,5.101c1.587,0,2.872-0.603,3.723-1.397
					c0.51-0.473,0.85-0.964,1.19-1.474L92.935,16.405z M79.574,12.002c1.645-0.094,2.136,1.417,2.136,2.985
					c0,0.435-0.058,1.719-0.587,2.418c-0.245,0.303-0.736,0.736-1.511,0.736c-0.661,0-1.341-0.32-1.719-0.926
					c-0.341-0.585-0.454-1.492-0.454-2.21C77.439,14.421,77.459,12.116,79.574,12.002z M74.681,6.675v13.357h2.797l-0.113-1.039
					c0.358,0.396,1.152,1.304,2.891,1.304c1.965,0,3.174-1.247,3.685-2.361c0.434-0.869,0.604-2.041,0.604-3.042
					c0-3.929-2.608-5.025-4.195-5.025c-1.681,0-2.418,0.756-2.834,1.19V6.675H74.681z M66.978,10.189H64.05v9.843h2.91v-5.328
					c0-1.227,0-2.456,1.529-2.456c0.567,0,1.077,0.227,1.305,0.756c0.112,0.265,0.132,0.586,0.132,1.474v5.555h2.891v-6.745
					c0-1.53-0.265-2.418-1.304-2.966c-0.511-0.284-1.172-0.397-1.757-0.397c-0.699,0-1.342,0.17-1.795,0.359
					c-0.51,0.245-0.699,0.472-0.982,0.774V10.189z M59.291,20.032h2.871v-9.881h-2.871V20.032z M59.291,8.923h2.871V6.675h-2.871
					V8.923z M51.118,13.873c0.094-0.415,0.188-0.869,0.585-1.304c0.283-0.302,0.775-0.642,1.474-0.642
					c0.51,0,1.058,0.189,1.417,0.548c0.416,0.435,0.491,0.982,0.548,1.398H51.118z M55.841,16.405
					c-0.359,0.699-0.907,1.738-2.494,1.738c-1.568,0-2.267-1.228-2.248-2.456h7.047c-0.038-1.115-0.113-3.042-1.398-4.421
					c-1.266-1.36-2.966-1.417-3.552-1.417c-3.892,0-5.063,3.061-5.063,5.441c0,3.231,2.06,5.101,4.988,5.101
					c1.587,0,2.872-0.603,3.722-1.397c0.51-0.473,0.85-0.964,1.19-1.474L55.841,16.405z M43.058,10.378h-1.436v1.776h1.436v4.761
					c0,0.944,0.019,1.644,0.416,2.229c0.623,0.907,1.719,0.964,2.721,0.964c0.529,0,0.907-0.057,1.53-0.151V17.69l-1.039,0.038
					c-0.775,0-0.775-0.511-0.756-1.115v-4.439h1.927v-1.776h-1.908v-3.08h-2.891V10.378z M32.102,18.369
					c0.624,0.586,2.041,1.908,4.78,1.908c2.324,0,4.667-1.134,4.667-3.457c0-2.343-2.305-2.872-4.289-3.231
					c-0.944-0.17-1.568-0.284-1.568-0.851c0-0.283,0.264-0.737,1.398-0.737c0.68,0,1.549,0.265,2.475,0.983l1.795-1.663
					c-0.68-0.472-2.078-1.473-4.402-1.473c-2.758,0-4.157,1.681-4.157,3.306c0,0.737,0.303,1.417,0.737,1.852
					c0.435,0.434,1.04,0.68,1.644,0.85c0.435,0.132,0.888,0.227,1.322,0.302c0.567,0.094,1.247,0.151,1.682,0.378
					c0.17,0.094,0.378,0.227,0.378,0.566c0,0.736-1.058,0.964-1.757,0.964c-1.096,0-2.078-0.586-2.872-1.36L32.102,18.369z"/>
			</g>
		</g>
	</g>
	<g>
		<path  d="M17.264,17.027c-0.657,0.379-1.222,0.053-1.222-0.706v-5.634c0-0.758,0.565-1.084,1.222-0.706l4.879,2.817
			c0.657,0.379,0.657,1.032,0,1.411L17.264,17.027z"/>
	</g>
	<g>
		<path fill-rule="evenodd" clip-rule="evenodd"  d="M106.893,12.173c0.83-0.038,1.359,0.359,1.586,0.718
			c0.322,0.472,0.359,1.455,0.359,1.927c0,1.398-0.34,2.55-1.813,2.55c-1.795,0-1.852-1.719-1.852-2.55
			C105.173,13.419,105.513,12.23,106.893,12.173z M108.856,19.787c0,0.811,0,1.851-1.757,1.851c-0.453,0-0.736-0.094-0.926-0.188
			c-0.774-0.359-0.812-0.982-0.851-1.417h-3.004c0,0.528-0.019,1.53,0.756,2.305c0.529,0.548,1.814,1.228,3.778,1.228
			c0.889,0,2.362-0.15,3.363-0.755c1.437-0.832,1.474-2.097,1.512-3.174v-9.484h-2.721v0.926c-0.435-0.416-1.134-1.077-2.645-1.077
			c-3.27,0-4.194,2.853-4.194,4.836c0,1.701,0.51,3.231,1.832,4.082c0.643,0.435,1.436,0.642,2.248,0.642
			c1.342,0,2.041-0.453,2.607-0.831V19.787z M99.144,10.151H96.31v9.881h2.909v-5.555c0-1.247,0.416-1.455,1.814-1.7l0.963-0.151
			v-2.569c-1.511,0.151-2.21,0.586-2.853,1.134V10.151z M88.212,13.873c0.095-0.415,0.188-0.869,0.586-1.304
			c0.283-0.302,0.774-0.642,1.474-0.642c0.51,0,1.059,0.189,1.417,0.548c0.415,0.435,0.491,0.982,0.548,1.398H88.212z
			 M92.935,16.405c-0.358,0.699-0.907,1.738-2.494,1.738c-1.568,0-2.268-1.228-2.248-2.456h7.047
			c-0.037-1.115-0.113-3.042-1.398-4.421c-1.265-1.36-2.966-1.417-3.552-1.417c-3.892,0-5.063,3.061-5.063,5.441
			c0,3.231,2.059,5.101,4.987,5.101c1.587,0,2.872-0.603,3.723-1.397c0.51-0.473,0.85-0.964,1.19-1.474L92.935,16.405z
			 M79.574,12.002c1.645-0.094,2.136,1.417,2.136,2.985c0,0.435-0.058,1.719-0.587,2.418c-0.245,0.303-0.736,0.736-1.511,0.736
			c-0.661,0-1.341-0.32-1.719-0.926c-0.341-0.585-0.454-1.492-0.454-2.21C77.439,14.421,77.459,12.116,79.574,12.002z M74.681,6.675
			v13.357h2.797l-0.113-1.039c0.358,0.396,1.152,1.304,2.891,1.304c1.965,0,3.174-1.247,3.685-2.361
			c0.434-0.869,0.604-2.041,0.604-3.042c0-3.929-2.608-5.025-4.195-5.025c-1.681,0-2.418,0.756-2.834,1.19V6.675H74.681z
			 M66.978,10.189H64.05v9.843h2.91v-5.328c0-1.227,0-2.456,1.529-2.456c0.567,0,1.077,0.227,1.305,0.756
			c0.112,0.265,0.132,0.586,0.132,1.474v5.555h2.891v-6.745c0-1.53-0.265-2.418-1.304-2.966c-0.511-0.284-1.172-0.397-1.757-0.397
			c-0.699,0-1.342,0.17-1.795,0.359c-0.51,0.245-0.699,0.472-0.982,0.774V10.189z M59.291,20.032h2.871v-9.881h-2.871V20.032z
			 M59.291,8.923h2.871V6.675h-2.871V8.923z M51.118,13.873c0.094-0.415,0.188-0.869,0.585-1.304
			c0.283-0.302,0.775-0.642,1.474-0.642c0.51,0,1.058,0.189,1.417,0.548c0.416,0.435,0.491,0.982,0.548,1.398H51.118z
			 M55.841,16.405c-0.359,0.699-0.907,1.738-2.494,1.738c-1.568,0-2.267-1.228-2.248-2.456h7.047
			c-0.038-1.115-0.113-3.042-1.398-4.421c-1.266-1.36-2.966-1.417-3.552-1.417c-3.892,0-5.063,3.061-5.063,5.441
			c0,3.231,2.06,5.101,4.988,5.101c1.587,0,2.872-0.603,3.722-1.397c0.51-0.473,0.85-0.964,1.19-1.474L55.841,16.405z
			 M43.058,10.378h-1.436v1.776h1.436v4.761c0,0.944,0.019,1.644,0.416,2.229c0.623,0.907,1.719,0.964,2.721,0.964
			c0.529,0,0.907-0.057,1.53-0.151V17.69l-1.039,0.038c-0.775,0-0.775-0.511-0.756-1.115v-4.439h1.927v-1.776h-1.908v-3.08h-2.891
			V10.378z M32.102,18.369c0.624,0.586,2.041,1.908,4.78,1.908c2.324,0,4.667-1.134,4.667-3.457c0-2.343-2.305-2.872-4.289-3.231
			c-0.944-0.17-1.568-0.284-1.568-0.851c0-0.283,0.264-0.737,1.398-0.737c0.68,0,1.549,0.265,2.475,0.983l1.795-1.663
			c-0.68-0.472-2.078-1.473-4.402-1.473c-2.758,0-4.157,1.681-4.157,3.306c0,0.737,0.303,1.417,0.737,1.852
			c0.435,0.434,1.04,0.68,1.644,0.85c0.435,0.132,0.888,0.227,1.322,0.302c0.567,0.094,1.247,0.151,1.682,0.378
			c0.17,0.094,0.378,0.227,0.378,0.566c0,0.736-1.058,0.964-1.757,0.964c-1.096,0-2.078-0.586-2.872-1.36L32.102,18.369z"/>
	</g>
	<g>
		<path fill-rule="evenodd" clip-rule="evenodd"  d="M5.005,13.566c0-5.239,4.247-9.486,9.486-9.486
			c5.239,0,9.486,4.247,9.486,9.486c0,5.239-4.247,9.485-9.486,9.485C9.252,23.052,5.005,18.806,5.005,13.566z M2.215,13.566
			c0-6.78,5.496-12.275,12.276-12.275c6.78,0,12.276,5.496,12.276,12.275c0,6.78-5.496,12.275-12.276,12.275
			C7.711,25.842,2.215,20.347,2.215,13.566z"/>
	</g>
</g>
</svg>
